# xmcd
#
# Track frame offsets: 
#        150
#        17944
#        26446
#        42187
#        99389
#        206417
#        220686
#        241441
#
# Disc length: 3464 seconds
#
# Revision: 0
# Processed by: cddbd v1.5.2PL0 Copyright (c) Steve Scherf et al.
# Submitted via: ExactAudioCopy v0.99pb5
#
DISCID=620d8608
DTITLE=The Time - Live At the Logo Hamburg Germany 10.03.96 CD1
DYEAR=1996
DGENRE=Funk
TTITLE0=Intro
TTITLE1=Get It Up
TTITLE2=777-9311
TTITLE3=Cool
TTITLE4=Gigalos Get Lonely Too
TTITLE5=The Walk
TTITLE6=The Bird
TTITLE7=Jungle Love
EXTD=
EXTT0=
EXTT1=
EXTT2=
EXTT3=
EXTT4=
EXTT5=
EXTT6=
EXTT7=
PLAYORDER=
